<svg width="25" height="24" viewBox="0 0 25 24" fill="none" xmlns="http://www.w3.org/2000/svg">
<path d="M5.5 3C5.23478 3 4.98043 3.10536 4.79289 3.29289C4.60536 3.48043 4.5 3.73478 4.5 4C4.5 4.26522 4.60536 4.51957 4.79289 4.70711C4.98043 4.89464 5.23478 5 5.5 5H6.72L7.025 6.222C7.02803 6.23607 7.03136 6.25007 7.035 6.264L8.393 11.694L7.5 12.586C6.24 13.846 7.132 16 8.914 16H17.5C17.7652 16 18.0196 15.8946 18.2071 15.7071C18.3946 15.5196 18.5 15.2652 18.5 15C18.5 14.7348 18.3946 14.4804 18.2071 14.2929C18.0196 14.1054 17.7652 14 17.5 14H8.914L9.914 13H16.5C16.6857 12.9999 16.8676 12.9481 17.0255 12.8504C17.1834 12.7528 17.311 12.6131 17.394 12.447L20.394 6.447C20.4702 6.29458 20.5061 6.12522 20.4985 5.95501C20.4908 5.78479 20.4398 5.61935 20.3502 5.47439C20.2606 5.32944 20.1355 5.20977 19.9867 5.12674C19.8379 5.04372 19.6704 5.00009 19.5 5H8.78L8.47 3.757C8.41583 3.54075 8.29095 3.34881 8.11521 3.21166C7.93946 3.0745 7.72293 3.00001 7.5 3H5.5ZM18.5 18.5C18.5 18.8978 18.342 19.2794 18.0607 19.5607C17.7794 19.842 17.3978 20 17 20C16.6022 20 16.2206 19.842 15.9393 19.5607C15.658 19.2794 15.5 18.8978 15.5 18.5C15.5 18.1022 15.658 17.7206 15.9393 17.4393C16.2206 17.158 16.6022 17 17 17C17.3978 17 17.7794 17.158 18.0607 17.4393C18.342 17.7206 18.5 18.1022 18.5 18.5ZM9 20C9.39782 20 9.77936 19.842 10.0607 19.5607C10.342 19.2794 10.5 18.8978 10.5 18.5C10.5 18.1022 10.342 17.7206 10.0607 17.4393C9.77936 17.158 9.39782 17 9 17C8.60218 17 8.22064 17.158 7.93934 17.4393C7.65804 17.7206 7.5 18.1022 7.5 18.5C7.5 18.8978 7.65804 19.2794 7.93934 19.5607C8.22064 19.842 8.60218 20 9 20V20Z" fill="#6BB3FA"/>
</svg>
