<svg width="16" height="17" viewBox="0 0 16 17" fill="none" xmlns="http://www.w3.org/2000/svg">
<path fill-rule="evenodd" clip-rule="evenodd" d="M13.138 8.02867C13.263 8.15369 13.3332 8.32323 13.3332 8.5C13.3332 8.67678 13.263 8.84632 13.138 8.97134L8.47134 13.638C8.34632 13.763 8.17678 13.8332 8 13.8332C7.82323 13.8332 7.65369 13.763 7.52867 13.638L2.862 8.97134C2.8 8.90951 2.75083 8.83605 2.71731 8.75516C2.68379 8.67427 2.66658 8.58756 2.66667 8.5V5.16667C2.66667 4.63624 2.87738 4.12753 3.25245 3.75246C3.62753 3.37739 4.13624 3.16667 4.66667 3.16667H8C8.17067 3.16667 8.34134 3.23201 8.47134 3.36201L13.138 8.02867ZM4.66667 5.83334C4.84348 5.83334 5.01305 5.7631 5.13807 5.63808C5.2631 5.51305 5.33334 5.34348 5.33334 5.16667C5.33334 4.98986 5.2631 4.82029 5.13807 4.69527C5.01305 4.57024 4.84348 4.50001 4.66667 4.50001C4.48986 4.50001 4.32029 4.57024 4.19526 4.69527C4.07024 4.82029 4 4.98986 4 5.16667C4 5.34348 4.07024 5.51305 4.19526 5.63808C4.32029 5.7631 4.48986 5.83334 4.66667 5.83334Z" fill="#6E7C87"/>
</svg>
